<svg xmlns="http://www.w3.org/2000/svg" viewBox="0 0 256 256" width="256" height="256" role="img" aria-label="ironstate">
  <defs><linearGradient id="tg" x1="0" y1="0" x2="0" y2="1"><stop offset="0" stop-color="#30404f"/><stop offset="1" stop-color="#141b22"/></linearGradient></defs>
    <g transform="translate(153.65,128.00)">
    <path d="M -101.70 0.00 L -119.70 -21.60 L -119.70 -7.92 L -141.30 -7.92 L -141.30 7.92 L -119.70 7.92 L -119.70 21.60 Z" fill="#f59e0b" stroke="#b45309" stroke-width="2.6"/>
    <path d="M -61.98 58.59 L -64.24 56.64 L -66.44 54.61 L -68.56 52.49 L -70.60 50.28 L -72.57 47.99 L -74.45 45.62 L -76.24 43.18 L -77.93 40.66 L -79.53 38.07 L -81.03 35.41 L -82.43 32.70 L -83.71 29.92 L -84.88 27.09 L -85.94 24.21 L -86.88 21.28 L -87.70 18.31 L -88.40 15.32 L -88.97 12.29 L -89.42 9.24 L -89.74 6.17 L -89.94 3.09 L -90.00 0.00 L -89.94 -3.09 L -89.74 -6.17 L -89.42 -9.24 L -88.97 -12.29 L -88.40 -15.32 L -87.70 -18.31 L -86.88 -21.28 L -85.94 -24.21 L -84.88 -27.09 L -83.71 -29.92 L -82.43 -32.70 L -81.03 -35.41 L -79.53 -38.07 L -77.93 -40.66 L -76.24 -43.18 L -74.45 -45.62 L -72.57 -47.99 L -70.60 -50.28 L -68.56 -52.49 L -66.44 -54.61 L -64.24 -56.64 L -61.98 -58.59 L -53.85 -50.17 L -55.49 -48.22 L -57.05 -46.21 L -58.53 -44.15 L -59.93 -42.05 L -61.26 -39.91 L -62.50 -37.73 L -63.67 -35.52 L -64.76 -33.27 L -65.77 -31.00 L -66.70 -28.70 L -67.55 -26.38 L -68.33 -24.04 L -69.03 -21.69 L -69.66 -19.31 L -70.21 -16.93 L -70.69 -14.53 L -71.09 -12.12 L -71.42 -9.71 L -71.67 -7.28 L -71.85 -4.86 L -71.96 -2.43 L -72.00 0.00 L -71.96 2.43 L -71.85 4.86 L -71.67 7.28 L -71.42 9.71 L -71.09 12.12 L -70.69 14.53 L -70.21 16.93 L -69.66 19.31 L -69.03 21.69 L -68.33 24.04 L -67.55 26.38 L -66.70 28.70 L -65.77 31.00 L -64.76 33.27 L -63.67 35.52 L -62.50 37.73 L -61.26 39.91 L -59.93 42.05 L -58.53 44.15 L -57.05 46.21 L -55.49 48.22 L -53.85 50.17 Z" fill="#f59e0b" stroke="#b45309" stroke-width="2.6"/>
    <path d="M 61.98 -58.59 L 64.24 -56.64 L 66.44 -54.61 L 68.56 -52.49 L 70.60 -50.28 L 72.57 -47.99 L 74.45 -45.62 L 76.24 -43.18 L 77.93 -40.66 L 79.53 -38.07 L 81.03 -35.41 L 82.43 -32.70 L 83.71 -29.92 L 84.88 -27.09 L 85.94 -24.21 L 86.88 -21.28 L 87.70 -18.31 L 88.40 -15.32 L 88.97 -12.29 L 89.42 -9.24 L 89.74 -6.17 L 89.94 -3.09 L 90.00 0.00 L 89.94 3.09 L 89.74 6.17 L 89.42 9.24 L 88.97 12.29 L 88.40 15.32 L 87.70 18.31 L 86.88 21.28 L 85.94 24.21 L 84.88 27.09 L 83.71 29.92 L 82.43 32.70 L 81.03 35.41 L 79.53 38.07 L 77.93 40.66 L 76.24 43.18 L 74.45 45.62 L 72.57 47.99 L 70.60 50.28 L 68.56 52.49 L 66.44 54.61 L 64.24 56.64 L 61.98 58.59 L 53.85 50.17 L 55.49 48.22 L 57.05 46.21 L 58.53 44.15 L 59.93 42.05 L 61.26 39.91 L 62.50 37.73 L 63.67 35.52 L 64.76 33.27 L 65.77 31.00 L 66.70 28.70 L 67.55 26.38 L 68.33 24.04 L 69.03 21.69 L 69.66 19.31 L 70.21 16.93 L 70.69 14.53 L 71.09 12.12 L 71.42 9.71 L 71.67 7.28 L 71.85 4.86 L 71.96 2.43 L 72.00 0.00 L 71.96 -2.43 L 71.85 -4.86 L 71.67 -7.28 L 71.42 -9.71 L 71.09 -12.12 L 70.69 -14.53 L 70.21 -16.93 L 69.66 -19.31 L 69.03 -21.69 L 68.33 -24.04 L 67.55 -26.38 L 66.70 -28.70 L 65.77 -31.00 L 64.76 -33.27 L 63.67 -35.52 L 62.50 -37.73 L 61.26 -39.91 L 59.93 -42.05 L 58.53 -44.15 L 57.05 -46.21 L 55.49 -48.22 L 53.85 -50.17 Z" fill="#f59e0b" stroke="#b45309" stroke-width="2.6"/>
    <rect x="-45.00" y="-48.46" width="90.00" height="96.93" rx="17.28" fill="url(#tg)" stroke="#3b4a55" stroke-width="2.6"/>
    <rect x="-42.39" y="-45.85" width="84.78" height="91.71" rx="14.67" fill="none" stroke="#46586a" stroke-width="1.3" stroke-opacity="0.6"/>
    <text x="-33.75" y="-25.10" font-family="Helvetica, Arial, sans-serif" font-size="13.9" font-weight="700" fill="#f59e0b">26</text>
    <text x="0.00" y="27.72" text-anchor="middle" font-family="Helvetica, Arial, sans-serif" font-size="56.2" font-weight="700" fill="#e8edf2">Fe</text>
  </g>
</svg>
