<svg xmlns="http://www.w3.org/2000/svg" viewBox="0 0 760 220" width="760" height="220" role="img" aria-label="ironstate">
  <defs><linearGradient id="tg" x1="0" y1="0" x2="0" y2="1"><stop offset="0" stop-color="#30404f"/><stop offset="1" stop-color="#141b22"/></linearGradient></defs>
    <g transform="translate(175.90,110.00)">
    <path d="M -113.00 0.00 L -133.00 -24.00 L -133.00 -8.80 L -157.00 -8.80 L -157.00 8.80 L -133.00 8.80 L -133.00 24.00 Z" fill="#f59e0b" stroke="#b45309" stroke-width="2.9"/>
    <path d="M -68.87 65.10 L -71.38 62.94 L -73.82 60.67 L -76.18 58.32 L -78.45 55.87 L -80.63 53.32 L -82.72 50.69 L -84.71 47.98 L -86.59 45.18 L -88.37 42.30 L -90.04 39.35 L -91.58 36.33 L -93.01 33.24 L -94.31 30.10 L -95.49 26.89 L -96.54 23.64 L -97.45 20.35 L -98.22 17.02 L -98.86 13.65 L -99.36 10.26 L -99.71 6.85 L -99.93 3.43 L -100.00 0.00 L -99.93 -3.43 L -99.71 -6.85 L -99.36 -10.26 L -98.86 -13.65 L -98.22 -17.02 L -97.45 -20.35 L -96.54 -23.64 L -95.49 -26.89 L -94.31 -30.10 L -93.01 -33.24 L -91.58 -36.33 L -90.04 -39.35 L -88.37 -42.30 L -86.59 -45.18 L -84.71 -47.98 L -82.72 -50.69 L -80.63 -53.32 L -78.45 -55.87 L -76.18 -58.32 L -73.82 -60.67 L -71.38 -62.94 L -68.87 -65.10 L -59.84 -55.75 L -61.65 -53.57 L -63.39 -51.34 L -65.03 -49.06 L -66.59 -46.72 L -68.06 -44.34 L -69.45 -41.92 L -70.74 -39.46 L -71.95 -36.97 L -73.08 -34.45 L -74.11 -31.89 L -75.06 -29.31 L -75.93 -26.71 L -76.71 -24.10 L -77.40 -21.46 L -78.01 -18.81 L -78.54 -16.14 L -78.99 -13.47 L -79.35 -10.78 L -79.64 -8.09 L -79.84 -5.40 L -79.96 -2.70 L -80.00 0.00 L -79.96 2.70 L -79.84 5.40 L -79.64 8.09 L -79.35 10.78 L -78.99 13.47 L -78.54 16.14 L -78.01 18.81 L -77.40 21.46 L -76.71 24.10 L -75.93 26.71 L -75.06 29.31 L -74.11 31.89 L -73.08 34.45 L -71.95 36.97 L -70.74 39.46 L -69.45 41.92 L -68.06 44.34 L -66.59 46.72 L -65.03 49.06 L -63.39 51.34 L -61.65 53.57 L -59.84 55.75 Z" fill="#f59e0b" stroke="#b45309" stroke-width="2.9"/>
    <path d="M 68.87 -65.10 L 71.38 -62.94 L 73.82 -60.67 L 76.18 -58.32 L 78.45 -55.87 L 80.63 -53.32 L 82.72 -50.69 L 84.71 -47.98 L 86.59 -45.18 L 88.37 -42.30 L 90.04 -39.35 L 91.58 -36.33 L 93.01 -33.24 L 94.31 -30.10 L 95.49 -26.89 L 96.54 -23.64 L 97.45 -20.35 L 98.22 -17.02 L 98.86 -13.65 L 99.36 -10.26 L 99.71 -6.85 L 99.93 -3.43 L 100.00 0.00 L 99.93 3.43 L 99.71 6.85 L 99.36 10.26 L 98.86 13.65 L 98.22 17.02 L 97.45 20.35 L 96.54 23.64 L 95.49 26.89 L 94.31 30.10 L 93.01 33.24 L 91.58 36.33 L 90.04 39.35 L 88.37 42.30 L 86.59 45.18 L 84.71 47.98 L 82.72 50.69 L 80.63 53.32 L 78.45 55.87 L 76.18 58.32 L 73.82 60.67 L 71.38 62.94 L 68.87 65.10 L 59.84 55.75 L 61.65 53.57 L 63.39 51.34 L 65.03 49.06 L 66.59 46.72 L 68.06 44.34 L 69.45 41.92 L 70.74 39.46 L 71.95 36.97 L 73.08 34.45 L 74.11 31.89 L 75.06 29.31 L 75.93 26.71 L 76.71 24.10 L 77.40 21.46 L 78.01 18.81 L 78.54 16.14 L 78.99 13.47 L 79.35 10.78 L 79.64 8.09 L 79.84 5.40 L 79.96 2.70 L 80.00 0.00 L 79.96 -2.70 L 79.84 -5.40 L 79.64 -8.09 L 79.35 -10.78 L 78.99 -13.47 L 78.54 -16.14 L 78.01 -18.81 L 77.40 -21.46 L 76.71 -24.10 L 75.93 -26.71 L 75.06 -29.31 L 74.11 -31.89 L 73.08 -34.45 L 71.95 -36.97 L 70.74 -39.46 L 69.45 -41.92 L 68.06 -44.34 L 66.59 -46.72 L 65.03 -49.06 L 63.39 -51.34 L 61.65 -53.57 L 59.84 -55.75 Z" fill="#f59e0b" stroke="#b45309" stroke-width="2.9"/>
    <rect x="-50.00" y="-53.85" width="100.00" height="107.70" rx="19.20" fill="url(#tg)" stroke="#3b4a55" stroke-width="2.9"/>
    <rect x="-47.10" y="-50.95" width="94.20" height="101.90" rx="16.30" fill="none" stroke="#46586a" stroke-width="1.5" stroke-opacity="0.6"/>
    <text x="-37.50" y="-27.89" font-family="Helvetica, Arial, sans-serif" font-size="15.4" font-weight="700" fill="#f59e0b">26</text>
    <text x="0.00" y="30.80" text-anchor="middle" font-family="Helvetica, Arial, sans-serif" font-size="62.5" font-weight="700" fill="#e8edf2">Fe</text>
  </g>
  <text x="309" y="144" font-family="Helvetica, Arial, sans-serif" font-size="98" font-weight="800" fill="#1f2933">ironstate</text>
</svg>
